<svg width="512" height="512" viewBox="0 0 512 512" xmlns="http://www.w3.org/2000/svg">
  <defs>
    <linearGradient id="gradient" x1="0%" y1="0%" x2="100%" y2="100%">
      <stop offset="0%" style="stop-color:#7c3aed;stop-opacity:1" />
      <stop offset="100%" style="stop-color:#3b82f6;stop-opacity:1" />
    </linearGradient>
  </defs>
  
  <!-- Background -->
  <rect width="512" height="512" fill="#0f0f23" rx="77"/>
  
  <!-- Musical note design -->
  <g transform="translate(128, 97)">
    <!-- Main note stem -->
    <rect x="179" y="41" width="15" height="281" fill="url(#gradient)"/>
    
    <!-- Note head -->
    <ellipse cx="156" cy="322" rx="32" ry="24" fill="url(#gradient)" transform="rotate(-20 156 322)"/>
    
    <!-- Flag -->
    <path d="M194 41 Q280 19 320 81 Q307 119 240 143 Q220 119 194 97 Z" fill="url(#gradient)" opacity="0.8"/>
    
    <!-- Sound waves -->
    <g stroke="url(#gradient)" stroke-width="8" fill="none" opacity="0.6">
      <path d="M59 181 Q79 161 99 181 Q119 201 139 181"/>
      <path d="M59 220 Q79 200 99 220 Q119 240 139 220"/>
      <path d="M59 260 Q79 240 99 260 Q119 280 139 260"/>
    </g>
    
    <!-- Collaboration symbol -->
    <circle cx="79" cy="120" r="24" fill="url(#gradient)" opacity="0.7"/>
    <circle cx="119" cy="140" r="24" fill="url(#gradient)" opacity="0.7"/>
    <circle cx="99" cy="181" r="24" fill="url(#gradient)" opacity="0.7"/>
  </g>
  
  <!-- Brand text -->
  <text x="256" y="459" font-family="Arial, sans-serif" font-size="48" font-weight="bold" text-anchor="middle" fill="url(#gradient)">
    JAMIN
  </text>
</svg>
