<svg width="1280" height="720" viewBox="0 0 1280 720" xmlns="http://www.w3.org/2000/svg">
  <defs>
    <linearGradient id="bgGradient" x1="0%" y1="0%" x2="100%" y2="100%">
      <stop offset="0%" style="stop-color:#0f0f23;stop-opacity:1" />
      <stop offset="100%" style="stop-color:#1a1a2e;stop-opacity:1" />
    </linearGradient>
    <linearGradient id="cardGradient" x1="0%" y1="0%" x2="100%" y2="100%">
      <stop offset="0%" style="stop-color:#7c3aed;stop-opacity:0.1" />
      <stop offset="100%" style="stop-color:#3b82f6;stop-opacity:0.1" />
    </linearGradient>
    <linearGradient id="accent" x1="0%" y1="0%" x2="100%" y2="100%">
      <stop offset="0%" style="stop-color:#7c3aed;stop-opacity:1" />
      <stop offset="100%" style="stop-color:#3b82f6;stop-opacity:1" />
    </linearGradient>
  </defs>
  
  <!-- Background -->
  <rect width="1280" height="720" fill="url(#bgGradient)"/>
  
  <!-- Header -->
  <rect x="0" y="0" width="1280" height="80" fill="#1a1a2e" opacity="0.8"/>
  <text x="64" y="50" font-family="Arial, sans-serif" font-size="28" font-weight="bold" fill="url(#accent)">
    JAMIN Music Collaboration
  </text>
  
  <!-- Navigation -->
  <g stroke="url(#accent)" stroke-width="2" fill="none" opacity="0.6">
    <rect x="960" y="20" width="80" height="40" rx="8"/>
    <rect x="1060" y="20" width="80" height="40" rx="8"/>
    <rect x="1160" y="20" width="80" height="40" rx="8"/>
  </g>
  <text x="1000" y="44" font-family="Arial, sans-serif" font-size="14" text-anchor="middle" fill="#ffffff">Dashboard</text>
  <text x="1100" y="44" font-family="Arial, sans-serif" font-size="14" text-anchor="middle" fill="#ffffff">Themes</text>
  <text x="1200" y="44" font-family="Arial, sans-serif" font-size="14" text-anchor="middle" fill="#ffffff">Profile</text>
  
  <!-- Main content area -->
  <rect x="64" y="120" width="1152" height="520" fill="url(#cardGradient)" rx="16"/>
  
  <!-- Dashboard cards -->
  <g transform="translate(100, 160)">
    <!-- Themes card -->
    <rect x="0" y="0" width="340" height="200" fill="url(#cardGradient)" rx="12" stroke="url(#accent)" stroke-width="1" opacity="0.8"/>
    <text x="20" y="30" font-family="Arial, sans-serif" font-size="20" font-weight="bold" fill="#ffffff">Recent Themes</text>
    
    <!-- Music waveform visualization -->
    <g transform="translate(20, 50)">
      <rect x="0" y="40" width="4" height="20" fill="url(#accent)" opacity="0.7"/>
      <rect x="8" y="30" width="4" height="40" fill="url(#accent)" opacity="0.8"/>
      <rect x="16" y="20" width="4" height="60" fill="url(#accent)" opacity="0.9"/>
      <rect x="24" y="35" width="4" height="30" fill="url(#accent)" opacity="0.7"/>
      <rect x="32" y="25" width="4" height="50" fill="url(#accent)" opacity="0.8"/>
      <rect x="40" y="40" width="4" height="20" fill="url(#accent)" opacity="0.6"/>
      <rect x="48" y="15" width="4" height="70" fill="url(#accent)" opacity="1"/>
      <rect x="56" y="30" width="4" height="40" fill="url(#accent)" opacity="0.8"/>
    </g>
    
    <!-- Collaborations card -->
    <rect x="380" y="0" width="340" height="200" fill="url(#cardGradient)" rx="12" stroke="url(#accent)" stroke-width="1" opacity="0.8"/>
    <text x="400" y="30" font-family="Arial, sans-serif" font-size="20" font-weight="bold" fill="#ffffff">Active Collaborations</text>
    
    <!-- Collaboration icons -->
    <g transform="translate(400, 60)">
      <circle cx="30" cy="30" r="20" fill="url(#accent)" opacity="0.7"/>
      <circle cx="80" cy="30" r="20" fill="url(#accent)" opacity="0.7"/>
      <circle cx="130" cy="30" r="20" fill="url(#accent)" opacity="0.7"/>
      <text x="30" y="36" font-family="Arial, sans-serif" font-size="12" text-anchor="middle" fill="#ffffff">👤</text>
      <text x="80" y="36" font-family="Arial, sans-serif" font-size="12" text-anchor="middle" fill="#ffffff">👤</text>
      <text x="130" y="36" font-family="Arial, sans-serif" font-size="12" text-anchor="middle" fill="#ffffff">👤</text>
    </g>
    
    <!-- Tools card -->
    <rect x="760" y="0" width="340" height="200" fill="url(#cardGradient)" rx="12" stroke="url(#accent)" stroke-width="1" opacity="0.8"/>
    <text x="780" y="30" font-family="Arial, sans-serif" font-size="20" font-weight="bold" fill="#ffffff">Music Tools</text>
    
    <!-- Tool icons -->
    <g transform="translate(780, 60)">
      <rect x="20" y="20" width="40" height="40" fill="url(#accent)" rx="8" opacity="0.7"/>
      <rect x="80" y="20" width="40" height="40" fill="url(#accent)" rx="8" opacity="0.7"/>
      <rect x="140" y="20" width="40" height="40" fill="url(#accent)" rx="8" opacity="0.7"/>
      <text x="40" y="44" font-family="Arial, sans-serif" font-size="12" text-anchor="middle" fill="#ffffff">🎵</text>
      <text x="100" y="44" font-family="Arial, sans-serif" font-size="12" text-anchor="middle" fill="#ffffff">🎤</text>
      <text x="160" y="44" font-family="Arial, sans-serif" font-size="12" text-anchor="middle" fill="#ffffff">🎹</text>
    </g>
    
    <!-- Statistics section -->
    <rect x="0" y="240" width="1100" height="200" fill="url(#cardGradient)" rx="12" stroke="url(#accent)" stroke-width="1" opacity="0.8"/>
    <text x="20" y="270" font-family="Arial, sans-serif" font-size="20" font-weight="bold" fill="#ffffff">Activity Overview</text>
    
    <!-- Stats bars -->
    <g transform="translate(40, 300)">
      <rect x="0" y="80" width="200" height="8" fill="url(#accent)" opacity="0.3" rx="4"/>
      <rect x="0" y="80" width="160" height="8" fill="url(#accent)" rx="4"/>
      <text x="0" y="75" font-family="Arial, sans-serif" font-size="14" fill="#ffffff">Themes Created</text>
      
      <rect x="250" y="80" width="200" height="8" fill="url(#accent)" opacity="0.3" rx="4"/>
      <rect x="250" y="80" width="120" height="8" fill="url(#accent)" rx="4"/>
      <text x="250" y="75" font-family="Arial, sans-serif" font-size="14" fill="#ffffff">Collaborations</text>
      
      <rect x="500" y="80" width="200" height="8" fill="url(#accent)" opacity="0.3" rx="4"/>
      <rect x="500" y="80" width="180" height="8" fill="url(#accent)" rx="4"/>
      <text x="500" y="75" font-family="Arial, sans-serif" font-size="14" fill="#ffffff">Tools Used</text>
    </g>
  </g>
  
  <!-- Footer -->
  <rect x="0" y="660" width="1280" height="60" fill="#1a1a2e" opacity="0.8"/>
  <text x="640" y="695" font-family="Arial, sans-serif" font-size="14" text-anchor="middle" fill="#ffffff" opacity="0.8">
    © 2025 Jamin Music Collaboration Platform
  </text>
</svg>
